<svg xmlns="http://www.w3.org/2000/svg" xmlns:xlink="http://www.w3.org/1999/xlink" version="1.1" class="marks" width="582" height="328" viewBox="0 0 582 328"><rect width="582" height="328" fill="white"/><g fill="none" stroke-miterlimit="10" transform="translate(39,6)"><g class="mark-group role-frame root" role="graphics-object" aria-roledescription="group mark container"><g transform="translate(0,0)"><path class="background" aria-hidden="true" d="M0.5,0.5h400v300h-400Z" stroke="#ddd" stroke-opacity="0"/><g><g class="mark-group role-axis" role="graphics-symbol" aria-roledescription="axis" aria-label="X-axis for a time scale with values from Wednesday, 01 January 1834, 12:00:00 AM to Friday, 01 January 2021, 12:00:00 AM"><g transform="translate(0.5,300.5)"><path class="background" aria-hidden="true" d="M0,0h0v0h0Z" pointer-events="none"/><g><g class="mark-rule role-axis-tick" pointer-events="none"><line transform="translate(13,0)" x2="0" y2="5" stroke="#888" stroke-width="1" opacity="1"/><line transform="translate(56,0)" x2="0" y2="5" stroke="#888" stroke-width="1" opacity="1"/><line transform="translate(98,0)" x2="0" y2="5" stroke="#888" stroke-width="1" opacity="1"/><line transform="translate(141,0)" x2="0" y2="5" stroke="#888" stroke-width="1" opacity="1"/><line transform="translate(184,0)" x2="0" y2="5" stroke="#888" stroke-width="1" opacity="1"/><line transform="translate(227,0)" x2="0" y2="5" stroke="#888" stroke-width="1" opacity="1"/><line transform="translate(270,0)" x2="0" y2="5" stroke="#888" stroke-width="1" opacity="1"/><line transform="translate(312,0)" x2="0" y2="5" stroke="#888" stroke-width="1" opacity="1"/><line transform="translate(355,0)" x2="0" y2="5" stroke="#888" stroke-width="1" opacity="1"/><line transform="translate(398,0)" x2="0" y2="5" stroke="#888" stroke-width="1" opacity="1"/></g><g class="mark-text role-axis-label" pointer-events="none"><text text-anchor="middle" transform="translate(12.831450721453352,15)" font-family="sans-serif" font-size="10px" fill="#000" opacity="1">1840</text><text text-anchor="middle" transform="translate(55.6127138525427,15)" font-family="sans-serif" font-size="10px" fill="#000" opacity="1">1860</text><text text-anchor="middle" transform="translate(98.39397698363203,15)" font-family="sans-serif" font-size="10px" fill="#000" opacity="1">1880</text><text text-anchor="middle" transform="translate(141.1752401147214,15)" font-family="sans-serif" font-size="10px" fill="#000" opacity="1">1900</text><text text-anchor="middle" transform="translate(183.95064681006383,15)" font-family="sans-serif" font-size="10px" fill="#000" opacity="1">1920</text><text text-anchor="middle" transform="translate(226.73173601043413,15)" font-family="sans-serif" font-size="10px" fill="#000" opacity="1">1940</text><text text-anchor="middle" transform="translate(269.51299914152344,15)" font-family="sans-serif" font-size="10px" fill="#000" opacity="1">1960</text><text text-anchor="middle" transform="translate(312.29401825445666,15)" font-family="sans-serif" font-size="10px" fill="#000" opacity="1">1980</text><text text-anchor="middle" transform="translate(355.075281385546,15)" font-family="sans-serif" font-size="10px" fill="#000" opacity="1">2000</text><text text-anchor="middle" transform="translate(397.8565445166354,15)" font-family="sans-serif" font-size="10px" fill="#000" opacity="1">2020</text></g><g class="mark-rule role-axis-domain" pointer-events="none"><line transform="translate(0,0)" x2="400" y2="0" stroke="#888" stroke-width="1" opacity="1"/></g></g><path class="foreground" aria-hidden="true" d="" pointer-events="none" display="none"/></g></g><g class="mark-group role-axis" role="graphics-symbol" aria-roledescription="axis" aria-label="Y-axis titled 'Elitismo apellido' for a linear scale with values from 0 to 28"><g transform="translate(0.5,0.5)"><path class="background" aria-hidden="true" d="M0,0h0v0h0Z" pointer-events="none"/><g><g class="mark-rule role-axis-tick" pointer-events="none"><line transform="translate(0,300)" x2="-5" y2="0" stroke="#888" stroke-width="1" opacity="1"/><line transform="translate(0,246)" x2="-5" y2="0" stroke="#888" stroke-width="1" opacity="1"/><line transform="translate(0,193)" x2="-5" y2="0" stroke="#888" stroke-width="1" opacity="1"/><line transform="translate(0,139)" x2="-5" y2="0" stroke="#888" stroke-width="1" opacity="1"/><line transform="translate(0,86)" x2="-5" y2="0" stroke="#888" stroke-width="1" opacity="1"/><line transform="translate(0,32)" x2="-5" y2="0" stroke="#888" stroke-width="1" opacity="1"/></g><g class="mark-text role-axis-label" pointer-events="none"><text text-anchor="end" transform="translate(-7,303)" font-family="sans-serif" font-size="10px" fill="#000" opacity="1">0</text><text text-anchor="end" transform="translate(-7,249.42857142857142)" font-family="sans-serif" font-size="10px" fill="#000" opacity="1">5</text><text text-anchor="end" transform="translate(-7,195.85714285714283)" font-family="sans-serif" font-size="10px" fill="#000" opacity="1">10</text><text text-anchor="end" transform="translate(-7,142.28571428571428)" font-family="sans-serif" font-size="10px" fill="#000" opacity="1">15</text><text text-anchor="end" transform="translate(-7,88.71428571428571)" font-family="sans-serif" font-size="10px" fill="#000" opacity="1">20</text><text text-anchor="end" transform="translate(-7,35.14285714285713)" font-family="sans-serif" font-size="10px" fill="#000" opacity="1">25</text></g><g class="mark-rule role-axis-domain" pointer-events="none"><line transform="translate(0,300)" x2="0" y2="-300" stroke="#888" stroke-width="1" opacity="1"/></g><g class="mark-text role-axis-title" pointer-events="none"><text text-anchor="middle" transform="translate(-23,150) rotate(-90) translate(0,-2)" font-family="sans-serif" font-size="11px" font-weight="bold" fill="#000" opacity="1">Elitismo apellido</text></g></g><path class="foreground" aria-hidden="true" d="" pointer-events="none" display="none"/></g></g><g class="mark-line role-mark layer_0_marks" role="graphics-object" aria-roledescription="line mark container"><path aria-label="Año: Jan 01, 1834; Elitismo apellido: 19.1489361702" role="graphics-symbol" aria-roledescription="line mark" d="M0,94.83282674772L6.418653578600125,141.72077922077892L12.831450721453352,124.67532467532425L19.25010430005348,126.5306122448979L25.668757878653604,68.33976833976857L32.08741145725374,95.91836734693932L38.50020860010696,119.92797118847574L44.91886217870709,81.48496240601466L51.33751575730721,106.6595059076261L57.75616933590734,88.5338345864657L64.16896647876057,107.14285714285712L70.5876200573607,110.9243697478993L77.00627363596082,96.99248120300783L83.42492721456094,85.71428571428571L89.83772435741417,122.2514812376561L96.25637793601429,78.83355176933145L102.67503151461442,142.00131665569498L109.09368509321456,142.98029556650252L115.50648223606777,145.14508928571428L121.92513581466791,142.56559766763857L128.34378939326803,59.136212624584296L134.76244297186815,125.39682539682534L141.1752401147214,96.66319082377498L147.5880372575746,85.71428571428571L154.00669083617473,18.045112781954987L160.42534441477486,56.8389057750761L166.83821164506517,89.65819456616998L173.25686522366527,93.70008873114428L179.67544871482835,124.79784366576857L186.09410229342848,150.81374321880642L192.50689943628169,122.56596906278465L196.78795396726406,171.19437939110037L205.3440326627629,207.83410138248846L209.61923075799837,225.74257425742573L220.3189388675809,183.54037267080753L228.87519149379875,225.37313432835825L237.43144412001664,177.3987206823032L245.9876967462345,189.16256157635465L254.54394937245235,180.95238095238108L263.10020199867023,183.41968911917144L271.65645462488806,200.0740192450037L280.21270725110594,244.48556624722426L288.76871585916774,236.35077793493636L297.32496848538557,240.77530509691317L333.6875780378748,203.18416523235803L342.2438306640926,157.14285714285748L350.8000832903105,202.00348432055756L359.3563359165284,227.24867724867727L367.9125885427463,210.13824884792626L376.46884116896416,182.48847926267248L385.025093795182,200.00000000000003L393.58134642139987,230.87557603686633" stroke="#1B9E77" stroke-width="2"/></g><g class="mark-symbol role-mark layer_1_marks" role="graphics-object" aria-roledescription="symbol mark container"><path aria-label="Año: Jan 01, 2021; Elitismo apellido: 2.9622963" role="graphics-symbol" aria-roledescription="point" transform="translate(400,268.26111107142856)" d="M4.47213595499958,0A4.47213595499958,4.47213595499958,0,1,1,-4.47213595499958,0A4.47213595499958,4.47213595499958,0,1,1,4.47213595499958,0" fill="#E7298A" stroke-width="2" opacity="1"/></g><g class="mark-text role-mark layer_2_marks" role="graphics-object" aria-roledescription="text mark container"><text aria-label="Año: Jan 01, 2021; Elitismo apellido: 2.9622963" role="graphics-symbol" aria-roledescription="text mark" text-anchor="start" transform="translate(407,271.26111107142856)" font-family="sans-serif" font-size="11px" fill="#E7298A">Candidatos convención</text></g><g class="mark-rule role-mark layer_3_marks" role="graphics-object" aria-roledescription="rule mark container"><line aria-label="year: Dec 31, 1924" role="graphics-symbol" aria-roledescription="rule mark" transform="translate(194.6492049163028,0)" x2="0" y2="300" stroke="#D95F02" opacity="1"/></g><g class="mark-text role-mark layer_4_marks" role="graphics-object" aria-roledescription="text mark container"><text aria-label="year: Dec 31, 1924" role="graphics-symbol" aria-roledescription="text mark" text-anchor="start" transform="translate(199.6492049163028,8)" font-family="sans-serif" font-size="11px" fill="#D95F02">Convención 1925</text></g><g class="mark-rule role-mark layer_5_marks" role="graphics-object" aria-roledescription="rule mark container"><line aria-label="elitismo: 14.2744496022" role="graphics-symbol" aria-roledescription="rule mark" transform="translate(400,147.05946854836952)" x2="-400" y2="0" stroke="#666666" stroke-width="1" stroke-dasharray="5,5"/></g><g class="mark-text role-mark layer_6_marks" role="graphics-object" aria-roledescription="text mark container"><text aria-label="elitismo: 14.2744496022" role="graphics-symbol" aria-roledescription="text mark" text-anchor="start" transform="translate(400,150.05946854836952)" font-family="sans-serif" font-size="11px" fill="#666666">Elitismo promedio</text></g></g><path class="foreground" aria-hidden="true" d="" display="none"/></g></g></g></svg>